<svg width="522" height="552" viewBox="0 0 522 552" fill="none" xmlns="http://www.w3.org/2000/svg">
<rect x="46" y="61" width="430" height="430" rx="50" fill="#1E39A7"/>
<path d="M453 276C453 382.039 367.039 468 261 468C154.961 468 69 382.039 69 276C69 169.961 154.961 84 261 84C367.039 84 453 169.961 453 276Z" fill="#004ECA" stroke="#004ECA" stroke-width="20"/>
<path d="M382.72 138.5L261 447.117L139.28 138.5L382.72 138.5Z" stroke="#4982FF" stroke-width="30"/>
<path d="M139.28 413.5L261 104.883L382.72 413.5H139.28Z" stroke="#4982FF" stroke-width="30"/>
<path d="M261 478V32" stroke="white" stroke-width="20"/>
<circle cx="260.5" cy="275.5" r="55.5" fill="white"/>
<path d="M256.67 23.5C258.594 20.1667 263.406 20.1667 265.33 23.5L312.096 104.5C314.02 107.833 311.614 112 307.765 112H214.235C210.386 112 207.98 107.833 209.905 104.5L256.67 23.5Z" fill="white"/>
</svg>
